<svg xmlns="http://www.w3.org/2000/svg" width="1000" height="1000" viewBox="0 0 1000 1000" version="1.1"><path d="M 703.425 393.019 C 697.184 396.108, 694.619 400.269, 694.189 408 C 693.880 413.541, 694.175 415.013, 696.187 417.976 C 700.106 423.747, 704.381 426, 711.416 426 C 719.094 426, 723.790 423.131, 727.014 416.471 C 734.373 401.269, 718.546 385.534, 703.425 393.019 M 703.092 395.161 C 695.296 400.511, 693.128 408.144, 697.185 415.956 C 704.826 430.667, 727 425.457, 727 408.951 C 727 399.888, 721.257 393.854, 712.016 393.208 C 707.476 392.891, 705.897 393.237, 703.092 395.161 M 705 408.361 C 705 415.373, 705.282 417, 706.500 417 C 707.500 417, 708 416, 708 414 C 708 410.143, 709.680 410.193, 712.983 414.148 C 716.335 418.164, 719.131 417.708, 715.950 413.664 C 713.757 410.875, 713.757 410.875, 715.878 408.899 C 720.129 404.939, 717.684 401.223, 710.250 400.343 C 705 399.721, 705 399.721, 705 408.361 M 708 405.500 C 708 407.466, 708.508 408, 710.378 408 C 713.041 408, 715.515 405.642, 714.527 404.044 C 714.172 403.470, 712.559 403, 710.941 403 C 708.471 403, 708 403.400, 708 405.500 M 687 519.500 C 687 566, 687 566, 696 566 C 705 566, 705 566, 705 519.500 C 705 473, 705 473, 696 473 C 687 473, 687 473, 687 519.500 M 330.591 477.853 C 329.942 478.903, 297 565.005, 297 565.651 C 297 565.884, 301.123 565.946, 306.163 565.788 C 315.327 565.500, 315.327 565.500, 318.445 557 C 321.563 548.500, 321.563 548.500, 341.652 548.230 C 361.740 547.959, 361.740 547.959, 364.993 556.980 C 368.245 566, 368.245 566, 377.690 566 C 386.240 566, 387.080 565.834, 386.554 564.250 C 386.235 563.288, 378.636 543.375, 369.669 520 C 353.364 477.500, 353.364 477.500, 342.261 477.218 C 336.154 477.063, 330.903 477.349, 330.591 477.853 M 393 521.432 C 393 566, 393 566, 402 566 C 411 566, 411 566, 411 550 C 411 534, 411 534, 416.767 534 C 422.533 534, 422.533 534, 431.607 549.750 C 440.681 565.500, 440.681 565.500, 459.745 565.771 C 478.809 566.043, 478.809 566.043, 481.904 557.936 C 483.607 553.477, 485 549.418, 485 548.915 C 485 548.392, 493.685 548, 505.267 548 C 525.534 548, 525.534 548, 528.295 555.750 C 529.813 560.013, 531.418 564.080, 531.861 564.790 C 532.446 565.726, 535.157 566, 541.747 565.790 C 550.826 565.500, 550.826 565.500, 538.382 533 C 514.107 469.603, 518.431 477, 505.648 477 C 494.465 477, 494.465 477, 478.573 518.750 C 469.832 541.712, 462.190 561.458, 461.591 562.629 C 460.612 564.539, 459.509 563.032, 450.837 547.934 C 441.174 531.111, 441.174 531.111, 445.337 528.963 C 451.279 525.897, 453.935 523.198, 456.623 517.500 C 459.292 511.838, 459.845 501.553, 457.839 494.858 C 456.165 489.269, 450.806 483.543, 444.224 480.311 C 438.533 477.516, 438.369 477.498, 415.750 477.182 C 393 476.865, 393 476.865, 393 521.432 M 411 505.500 C 411 517, 411 517, 419.750 516.994 C 424.563 516.991, 430.108 516.542, 432.074 515.996 C 442.300 513.155, 443.953 500.053, 434.643 495.635 C 432.161 494.457, 428.374 494, 421.099 494 C 411 494, 411 494, 411 505.500 M 334.889 512.767 C 328.343 530.500, 328.343 530.500, 341.308 530.780 C 348.439 530.934, 354.462 530.871, 354.693 530.640 C 355.146 530.187, 343.129 496.979, 342.073 495.767 C 341.722 495.365, 338.489 503.015, 334.889 512.767 M 499.206 511.202 C 495.889 520.166, 492.862 528.288, 492.480 529.250 C 491.840 530.865, 492.836 531, 505.393 531 C 512.877 531, 519 530.886, 519 530.747 C 519 530.168, 505.972 495.639, 505.621 495.288 C 505.411 495.077, 502.524 502.239, 499.206 511.202 M 637 505.695 C 630.343 508.109, 620.819 518.004, 618.540 524.873 C 616.201 531.923, 616.775 543.768, 619.732 549.500 C 622.771 555.389, 628.625 560.931, 634.933 563.889 C 639.772 566.158, 641.808 566.500, 650.500 566.500 C 659.719 566.500, 660.919 566.268, 665.864 563.529 C 668.814 561.895, 672.287 559.001, 673.580 557.097 C 675.931 553.637, 675.931 553.637, 669.716 549.422 C 663.500 545.208, 663.500 545.208, 661 547.482 C 659.625 548.732, 657.517 550.261, 656.316 550.878 C 653.226 552.465, 645.422 552.270, 642.039 550.520 C 638.521 548.701, 635 544.371, 635 541.865 C 635 540.101, 636.200 540, 657.128 540 C 679.257 540, 679.257 540, 678.792 532.250 C 678.059 520.023, 673.143 512.113, 663 506.840 C 657.166 503.807, 643.827 503.219, 637 505.695 M 548.269 506.250 C 548.534 506.938, 554.053 520.663, 560.533 536.750 C 572.315 566, 572.315 566, 581.407 565.980 C 590.500 565.960, 590.500 565.960, 602.204 537.230 C 608.641 521.428, 614.208 507.695, 614.576 506.711 C 615.192 505.060, 614.522 504.944, 605.890 505.211 C 596.537 505.500, 596.537 505.500, 589.318 524.867 C 585.348 535.518, 581.904 544.430, 581.664 544.670 C 581.424 544.910, 577.914 536.088, 573.864 525.066 C 566.500 505.025, 566.500 505.025, 557.143 505.013 C 550.063 505.003, 547.903 505.304, 548.269 506.250 M 642.270 519.483 C 639.457 520.705, 635.015 526.066, 635.004 528.250 C 635.002 528.663, 640.850 529, 648 529 C 659.791 529, 661 528.835, 661 527.223 C 661 522.729, 654.386 517.953, 648.282 518.039 C 646.752 518.061, 644.046 518.710, 642.270 519.483" stroke="none" fill="#0b4a84" fill-rule="evenodd"/><path d="M 351.741 306.390 C 349.673 307.150, 347.423 308.206, 346.741 308.739 C 346.058 309.271, 336.725 316.877, 326 325.641 C 274.573 367.665, 225.934 406.267, 225.260 405.593 C 223.720 404.053, 231.463 376.583, 240.930 350 C 245.593 336.907, 244.695 328.767, 238.066 324.047 C 230.855 318.913, 223.508 320.587, 214.729 329.366 C 206.556 337.539, 199.433 349.587, 181.836 385 C 147.097 454.912, 141.633 470.520, 141.573 500 C 141.523 525.008, 147.414 543.282, 161.729 562.528 C 193.485 605.221, 240.954 611.085, 303.041 579.984 C 315.224 573.881, 339.533 559.253, 345.500 554.433 C 348.500 552.010, 348.500 552.010, 336.838 552.005 C 325.175 552, 325.175 552, 322.088 560.085 C 320.389 564.532, 319 568.582, 319 569.085 C 319 569.595, 312.795 570, 305 570 C 297.300 570, 291.001 569.663, 291.003 569.250 C 291.005 568.837, 299.259 546.900, 309.346 520.500 C 327.685 472.500, 327.685 472.500, 341.953 472.500 C 356.221 472.500, 356.221 472.500, 358.460 478.500 C 359.691 481.800, 361.197 484.500, 361.806 484.500 C 362.416 484.500, 379.253 473.565, 399.222 460.199 C 423.100 444.218, 436.310 434.761, 437.808 432.576 C 442.457 425.790, 441.903 417.112, 436.433 411.057 C 431.898 406.038, 428.323 404.658, 421.252 405.200 C 415.136 405.668, 418.527 403.868, 348 444.070 C 329.197 454.789, 329.440 454.690, 328.087 452.162 C 327.149 450.411, 328.018 449.271, 335.260 442.747 C 348.773 430.574, 372.124 410.654, 395.512 391.350 C 407.605 381.367, 418.391 371.692, 419.480 369.850 C 420.910 367.429, 421.465 364.655, 421.480 359.846 C 421.498 353.900, 421.175 352.790, 418.442 349.411 C 413.363 343.130, 410.486 341.492, 404.674 341.569 C 401.828 341.607, 398.120 342.363, 396.434 343.249 C 394.747 344.136, 383.497 351.955, 371.434 360.625 C 359.370 369.295, 337.630 384.633, 323.122 394.710 C 301.153 409.970, 296.495 412.826, 295.255 411.797 C 293.987 410.744, 294.783 409.595, 300.642 404.031 C 316.159 389.292, 364.742 344.067, 367.918 341.405 C 378.240 332.752, 380.071 319.994, 372.186 311.661 C 366.885 306.058, 358.518 303.901, 351.741 306.390 M 192 446 C 192 466, 192 466, 212 466 C 232 466, 232 466, 232 518 C 232 570, 232 570, 254 570 C 276 570, 276 570, 276 518 C 276 466, 276 466, 295.500 466 C 315 466, 315 466, 315 446 C 315 426, 315 426, 253.500 426 C 192 426, 192 426, 192 446 M 686.462 519.500 C 686.461 545.350, 686.591 556.068, 686.749 543.319 C 686.907 530.569, 686.907 509.419, 686.749 496.319 C 686.591 483.218, 686.462 493.650, 686.462 519.500 M 330.655 476.750 C 330.400 477.163, 335.505 477.500, 342 477.500 C 348.495 477.500, 353.600 477.163, 353.345 476.750 C 353.091 476.337, 347.985 476, 342 476 C 336.015 476, 330.909 476.337, 330.655 476.750 M 392.239 521.250 C 392.479 566.500, 392.479 566.500, 392.750 521.771 C 393.021 477.042, 393.021 477.042, 412.760 476.749 C 432.500 476.455, 432.500 476.455, 412.250 476.228 C 392 476, 392 476, 392.239 521.250 M 504.962 476.732 C 512.469 476.953, 516.723 477.489, 517.289 478.285 C 517.907 479.155, 518.037 479.074, 517.745 478 C 517.412 476.777, 515.134 476.490, 505.418 476.447 C 493.500 476.394, 493.500 476.394, 504.962 476.732 M 376.250 488.748 C 370.063 491.275, 365 493.801, 365 494.361 C 365 496.354, 379.315 533, 380.093 533 C 380.529 533, 382.486 532.056, 384.443 530.901 C 388 528.802, 388 528.802, 388 506.401 C 388 494.081, 387.887 484.035, 387.750 484.077 C 387.613 484.119, 382.438 486.221, 376.250 488.748 M 411.214 505.250 C 411 517, 411 517, 420.750 516.792 C 430.500 516.585, 430.500 516.585, 421.282 516.255 C 412.065 515.926, 412.065 515.926, 411.746 504.713 C 411.428 493.500, 411.428 493.500, 411.214 505.250 M 416 505.059 C 416 508.941, 416.337 511.927, 416.750 511.693 C 430.097 504.129, 434.023 501.570, 433.713 500.636 C 433.224 499.166, 428.950 498.266, 421.750 498.118 C 416 498, 416 498, 416 505.059 M 338.125 516.625 C 336.387 521.395, 335.145 525.478, 335.364 525.698 C 335.584 525.917, 338.682 525.962, 342.249 525.798 C 348.735 525.500, 348.735 525.500, 345.617 517.326 C 343.903 512.831, 342.227 508.882, 341.892 508.552 C 341.558 508.222, 339.863 511.855, 338.125 516.625 M 634.998 528.250 C 634.999 528.663, 640.962 528.919, 648.250 528.820 C 661.574 528.638, 659.975 528.265, 643.748 527.768 C 638.934 527.621, 634.996 527.837, 634.998 528.250 M 341 530 C 327.500 530.589, 327.500 530.589, 341.250 530.794 C 349.887 530.924, 355 530.628, 355 530 C 355 529.450, 354.887 529.092, 354.750 529.206 C 354.613 529.319, 348.425 529.676, 341 530 M 492 530.250 C 492 530.663, 498.075 531, 505.500 531 C 512.925 531, 519 530.663, 519 530.250 C 519 529.837, 512.925 529.500, 505.500 529.500 C 498.075 529.500, 492 529.837, 492 530.250 M 411.407 550 C 411.407 559.075, 411.559 562.788, 411.744 558.250 C 411.929 553.712, 411.929 546.288, 411.744 541.750 C 411.559 537.212, 411.407 540.925, 411.407 550 M 645.750 540.747 C 651.938 540.922, 662.063 540.922, 668.250 540.747 C 674.438 540.571, 669.375 540.428, 657 540.428 C 644.625 540.428, 639.563 540.571, 645.750 540.747 M 456.728 570.722 C 458.503 570.943, 461.653 570.946, 463.728 570.730 C 465.802 570.513, 464.350 570.333, 460.500 570.328 C 456.650 570.324, 454.952 570.501, 456.728 570.722" stroke="none" fill="#efc8bd" fill-rule="evenodd"/><path d="M 262.448 206.035 C 253.644 207.124, 240.548 211.206, 231.885 215.563 C 217.462 222.816, 200 238.749, 200 244.657 C 200 250.028, 203.683 253.919, 208.813 253.968 C 211.579 253.995, 213.397 252.794, 219.813 246.702 C 232.732 234.435, 243.539 228.258, 257.094 225.391 C 265.601 223.592, 281.408 223.336, 288 224.890 C 290.475 225.474, 294.109 225.962, 296.076 225.976 C 304.798 226.035, 307.867 213.548, 300.109 209.567 C 293.869 206.365, 274.479 204.547, 262.448 206.035 M 262.500 239.103 C 250.628 241.478, 232.527 253.213, 228.387 261.219 C 226.434 264.995, 227.377 269.365, 230.712 271.988 C 235.068 275.414, 238.232 274.622, 245.212 268.354 C 248.670 265.249, 254.425 261.312, 258 259.604 C 264.293 256.599, 264.937 256.500, 278.212 256.500 C 293.229 256.500, 295.252 255.829, 296.616 250.393 C 297.682 246.148, 295.905 242.703, 291.556 240.578 C 286.923 238.313, 270.590 237.484, 262.500 239.103 M 457.590 546.310 C 455.878 547.562, 455.890 547.771, 457.864 551.017 C 459.929 554.413, 459.929 554.413, 461.465 550.739 C 462.309 548.718, 463 546.600, 463 546.032 C 463 544.580, 459.727 544.748, 457.590 546.310 M 488.569 552.889 C 488.266 553.378, 487.362 556.902, 486.559 560.719 C 483.638 574.606, 477.977 586.104, 469 596.387 C 461.522 604.953, 453.921 610.564, 441.751 616.500 C 434.047 620.258, 431.167 622.202, 430.160 624.324 C 427.434 630.070, 431.563 636, 438.291 636 C 445.374 636, 461.831 627.256, 473.922 617.068 C 490.142 603.401, 504.963 574.390, 504.993 556.250 C 505 552, 505 552, 497.059 552 C 492.691 552, 488.871 552.400, 488.569 552.889 M 444.475 574.209 C 440.578 579.678, 432.968 585.405, 426.557 587.694 C 420.184 589.970, 417.297 594.685, 419.104 599.868 C 420.241 603.130, 424.327 606, 427.835 606 C 428.898 606, 433.533 604.124, 438.134 601.832 C 448.357 596.739, 458.910 586.647, 463.839 577.250 C 467.117 571, 467.117 571, 462.309 570.991 C 459.664 570.987, 455.250 570.753, 452.500 570.473 C 447.555 569.969, 447.467 570.010, 444.475 574.209" stroke="none" fill="#fcd358" fill-rule="evenodd"/><path d="M 262.448 206.035 C 253.644 207.124, 240.548 211.206, 231.885 215.563 C 217.462 222.816, 200 238.749, 200 244.657 C 200 250.028, 203.683 253.919, 208.813 253.968 C 211.579 253.995, 213.397 252.794, 219.813 246.702 C 232.732 234.435, 243.539 228.258, 257.094 225.391 C 265.601 223.592, 281.408 223.336, 288 224.890 C 290.475 225.474, 294.109 225.962, 296.076 225.976 C 304.798 226.035, 307.867 213.548, 300.109 209.567 C 293.869 206.365, 274.479 204.547, 262.448 206.035 M 262.500 239.103 C 250.628 241.478, 232.527 253.213, 228.387 261.219 C 226.434 264.995, 227.377 269.365, 230.712 271.988 C 235.068 275.414, 238.232 274.622, 245.212 268.354 C 248.670 265.249, 254.425 261.312, 258 259.604 C 264.293 256.599, 264.937 256.500, 278.212 256.500 C 293.229 256.500, 295.252 255.829, 296.616 250.393 C 297.682 246.148, 295.905 242.703, 291.556 240.578 C 286.923 238.313, 270.590 237.484, 262.500 239.103 M 457.590 546.310 C 455.878 547.562, 455.890 547.771, 457.864 551.017 C 459.929 554.413, 459.929 554.413, 461.465 550.739 C 462.309 548.718, 463 546.600, 463 546.032 C 463 544.580, 459.727 544.748, 457.590 546.310 M 488.569 552.889 C 488.266 553.378, 487.362 556.902, 486.559 560.719 C 483.638 574.606, 477.977 586.104, 469 596.387 C 461.522 604.953, 453.921 610.564, 441.751 616.500 C 434.047 620.258, 431.167 622.202, 430.160 624.324 C 427.434 630.070, 431.563 636, 438.291 636 C 445.374 636, 461.831 627.256, 473.922 617.068 C 490.142 603.401, 504.963 574.390, 504.993 556.250 C 505 552, 505 552, 497.059 552 C 492.691 552, 488.871 552.400, 488.569 552.889 M 444.475 574.209 C 440.578 579.678, 432.968 585.405, 426.557 587.694 C 420.184 589.970, 417.297 594.685, 419.104 599.868 C 420.241 603.130, 424.327 606, 427.835 606 C 428.898 606, 433.533 604.124, 438.134 601.832 C 448.357 596.739, 458.910 586.647, 463.839 577.250 C 467.117 571, 467.117 571, 462.309 570.991 C 459.664 570.987, 455.250 570.753, 452.500 570.473 C 447.555 569.969, 447.467 570.010, 444.475 574.209" stroke="none" fill="#fcd358" fill-rule="evenodd"/></svg>