<svg xmlns="http://www.w3.org/2000/svg" xmlns:xlink="http://www.w3.org/1999/xlink" width="686" zoomAndPan="magnify" viewBox="0 0 514.5 197.999996" height="264" preserveAspectRatio="xMidYMid meet" version="1.0"><defs><filter x="0%" y="0%" width="100%" height="100%" id="3124fabe3f"><feColorMatrix values="0 0 0 0 1 0 0 0 0 1 0 0 0 0 1 0 0 0 1 0" color-interpolation-filters="sRGB"/></filter><g/><clipPath id="cdb3dec4d7"><path d="M 0 0.0976562 L 514 0.0976562 L 514 197.902344 L 0 197.902344 Z M 0 0.0976562 " clip-rule="nonzero"/></clipPath><clipPath id="7ee54c8c95"><path d="M 55 0.0976562 L 442 0.0976562 L 442 197.902344 L 55 197.902344 Z M 55 0.0976562 " clip-rule="nonzero"/></clipPath><mask id="b64ff1db59"><g filter="url(#3124fabe3f)"><rect x="-51.45" width="617.4" fill="#000000" y="-19.8" height="237.599995" fill-opacity="0.27"/></g></mask><clipPath id="35e5029c86"><path d="M 0.671875 65 L 364 65 L 364 150 L 0.671875 150 Z M 0.671875 65 " clip-rule="nonzero"/></clipPath><clipPath id="176a71e915"><rect x="0" width="387" y="0" height="198"/></clipPath></defs><g clip-path="url(#cdb3dec4d7)"><path fill="#ffffff" d="M 0 0.0976562 L 514 0.0976562 L 514 197.902344 L 0 197.902344 Z M 0 0.0976562 " fill-opacity="1" fill-rule="nonzero"/></g><g clip-path="url(#7ee54c8c95)"><g mask="url(#b64ff1db59)"><g transform="matrix(1, 0, 0, 1, 55, -0.000000000000009839)"><g clip-path="url(#176a71e915)"><path fill="#4cb6c6" d="M 101.085938 59.832031 C 183.515625 37.773438 240.546875 98.742188 316.1875 90.574219 C 349.535156 86.976562 367.375 60.839844 337.855469 50.9375 C 382.875 44.472656 386.507812 101.175781 341 115.511719 C 267.375 138.707031 184.074219 54.769531 101.085938 59.832031 Z M 101.085938 59.832031 " fill-opacity="1" fill-rule="evenodd"/><g clip-path="url(#35e5029c86)"><path fill="#0071ad" d="M 363.429688 136.433594 C 227.066406 165.554688 142.027344 0.0976562 0.90625 94.816406 C 126.011719 26.171875 210.601562 197.609375 363.429688 136.433594 Z M 363.429688 136.433594 " fill-opacity="1" fill-rule="evenodd"/></g></g></g></g></g><g fill="#0e4b85" fill-opacity="1"><g transform="translate(183.626946, 112.303576)"><g><path d="M 2.78125 -25.3125 C 2.78125 -28.976562 3.457031 -32.394531 4.8125 -35.5625 C 6.175781 -38.738281 8.066406 -41.515625 10.484375 -43.890625 C 12.898438 -46.265625 15.691406 -48.117188 18.859375 -49.453125 C 22.035156 -50.796875 25.4375 -51.46875 29.0625 -51.46875 C 32.382812 -51.46875 35.585938 -50.882812 38.671875 -49.71875 C 41.765625 -48.550781 44.484375 -46.851562 46.828125 -44.625 C 49.179688 -42.40625 50.921875 -39.703125 52.046875 -36.515625 L 42.46875 -32.109375 C 41.382812 -34.910156 39.664062 -37.128906 37.3125 -38.765625 C 34.96875 -40.410156 32.195312 -41.234375 29 -41.234375 C 26.0625 -41.234375 23.4375 -40.519531 21.125 -39.09375 C 18.820312 -37.675781 17 -35.769531 15.65625 -33.375 C 14.320312 -30.976562 13.65625 -28.332031 13.65625 -25.4375 C 13.65625 -22.5 14.3125 -19.820312 15.625 -17.40625 C 16.945312 -14.988281 18.757812 -13.054688 21.0625 -11.609375 C 23.375 -10.171875 26.019531 -9.453125 29 -9.453125 C 32.195312 -9.453125 34.992188 -10.320312 37.390625 -12.0625 C 39.785156 -13.8125 41.519531 -16.070312 42.59375 -18.84375 L 52.234375 -14.375 C 51.078125 -11.175781 49.289062 -8.453125 46.875 -6.203125 C 44.457031 -3.960938 41.679688 -2.25 38.546875 -1.0625 C 35.421875 0.125 32.195312 0.71875 28.875 0.71875 C 25.207031 0.71875 21.785156 0.0625 18.609375 -1.25 C 15.441406 -2.570312 12.671875 -4.410156 10.296875 -6.765625 C 7.921875 -9.117188 6.070312 -11.878906 4.75 -15.046875 C 3.4375 -18.222656 2.78125 -21.644531 2.78125 -25.3125 Z M 2.78125 -25.3125 "/></g></g></g><g fill="#0e4b85" fill-opacity="1"><g transform="translate(234.632142, 112.303576)"><g><path d="M 10.484375 0 L -0.0625 0 L 19.296875 -50.6875 L 31.921875 -50.6875 L 51.328125 0 L 40.53125 0 L 36.703125 -10.234375 L 14.234375 -10.234375 Z M 25.5 -40.53125 L 17.859375 -19.9375 L 33.140625 -19.9375 Z M 25.5 -40.53125 "/></g></g></g><g fill="#0e4b85" fill-opacity="1"><g transform="translate(283.048237, 112.303576)"><g><path d="M 44.859375 0 L 33.203125 0 L 22.71875 -18.1875 L 16.375 -18.1875 L 16.375 0 L 5.890625 0 L 5.890625 -50.6875 L 25.890625 -50.6875 C 29.171875 -50.6875 32.171875 -50.09375 34.890625 -48.90625 C 37.609375 -47.71875 39.773438 -45.9375 41.390625 -43.5625 C 43.015625 -41.1875 43.828125 -38.210938 43.828125 -34.640625 C 43.828125 -27.253906 40.351562 -22.3125 33.40625 -19.8125 Z M 25.109375 -27.90625 C 26.410156 -27.90625 27.6875 -28.117188 28.9375 -28.546875 C 30.1875 -28.972656 31.207031 -29.660156 32 -30.609375 C 32.800781 -31.566406 33.203125 -32.84375 33.203125 -34.4375 C 33.203125 -36.082031 32.789062 -37.359375 31.96875 -38.265625 C 31.15625 -39.171875 30.132812 -39.816406 28.90625 -40.203125 C 27.675781 -40.585938 26.390625 -40.78125 25.046875 -40.78125 L 16.375 -40.78125 L 16.375 -27.90625 Z M 25.109375 -27.90625 "/></g></g></g></svg>